<mxfile host="app.diagrams.net" agent="Mozilla/5.0 (Windows NT 10.0; Win64; x64) AppleWebKit/537.36 (KHTML, like Gecko) Chrome/140.0.0.0 Safari/537.36" version="28.2.5">
  <diagram name="Page-1" id="0">
    <mxGraphModel grid="1" page="1" gridSize="10" guides="1" tooltips="1" connect="1" arrows="1" fold="1" pageScale="1" pageWidth="827" pageHeight="1169" math="0" shadow="0">
      <root>
        <mxCell id="0" />
        <mxCell id="1" parent="0" />
        <mxCell id="2" value="ESP32 (simulado Wokwi&lt;br&gt;Tecnologia: C/C++ (Arduino)&lt;br&gt;Formato: JSON via HTTP&lt;br&gt;Periodicidade: a cada 5s" style="rounded=1;whiteSpace=wrap;html=1;fillColor=#ffcd28;strokeColor=#d79b00;align=center;verticalAlign=middle;gradientColor=#ffa500;" vertex="1" parent="1">
          <mxGeometry x="50" y="290" width="180" height="100" as="geometry" />
        </mxCell>
        <mxCell id="3" value="API de Ingestão (Flask)&#xa;Tecnologia: Flask (Python)&#xa;Formato: JSON (REST)&#xa;Periodicidade: em tempo real" style="rounded=1;whiteSpace=wrap;html=1;fillColor=#d5e8d4;strokeColor=#82b366;align=center;verticalAlign=middle;gradientColor=#97d077;" vertex="1" parent="1">
          <mxGeometry x="410" y="290" width="220" height="100" as="geometry" />
        </mxCell>
        <mxCell id="4" value="Banco de Dados Relacional&#xa;Tecnologia: MySQL/Oracle&#xa;Formato: SQL (tabelas)&#xa;Periodicidade: em tempo real" style="rounded=1;whiteSpace=wrap;html=1;fillColor=#fff2cc;strokeColor=#d6b656;align=center;verticalAlign=middle;gradientColor=#ffd966;" vertex="1" parent="1">
          <mxGeometry x="770" y="290" width="180" height="100" as="geometry" />
        </mxCell>
        <mxCell id="5" value="Modelo de ML (Treino/Inferência)&#xa;Tecnologia: Scikit-Learn (Python)&#xa;Formato: CSV (treino) &amp; JSON (predição)&#xa;Periodicidade: Treino offline; inferência sob demanda" style="rounded=1;whiteSpace=wrap;html=1;fillColor=#f5f5f5;strokeColor=#666666;align=center;verticalAlign=middle;gradientColor=#b3b3b3;" vertex="1" parent="1">
          <mxGeometry x="730" y="520" width="260" height="100" as="geometry" />
        </mxCell>
        <mxCell id="6" value="Dashboard de Monitoramento&#xa;Tecnologia: Grafana/PowerBI&#xa;Formato: Gráficos (KPIs/Alertas)&#xa;Periodicidade: em tempo real" style="rounded=1;whiteSpace=wrap;html=1;fillColor=#dae8fc;strokeColor=#6c8ebf;align=center;verticalAlign=middle;gradientColor=#7ea6e0;" vertex="1" parent="1">
          <mxGeometry x="405" y="70" width="230" height="100" as="geometry" />
        </mxCell>
        <mxCell id="7" value="" style="endArrow=block;endFill=1;strokeColor=#000000;edgeStyle=orthogonalEdgeStyle;rounded=0;" edge="1" parent="1" source="bnvGCbkC4F3y_n1LF4dj-24" target="3">
          <mxGeometry relative="1" as="geometry" />
        </mxCell>
        <mxCell id="8" value="" style="endArrow=block;endFill=1;strokeColor=#000000;edgeStyle=orthogonalEdgeStyle;rounded=0;" edge="1" parent="1" source="bnvGCbkC4F3y_n1LF4dj-11" target="4">
          <mxGeometry relative="1" as="geometry" />
        </mxCell>
        <mxCell id="9" value="" style="endArrow=block;endFill=1;strokeColor=#000000;edgeStyle=orthogonalEdgeStyle;rounded=0;" edge="1" parent="1" source="4" target="5">
          <mxGeometry relative="1" as="geometry">
            <mxPoint as="offset" />
          </mxGeometry>
        </mxCell>
        <mxCell id="10" value="" style="endArrow=block;endFill=1;strokeColor=#000000;edgeStyle=orthogonalEdgeStyle;rounded=0;" edge="1" parent="1" source="bnvGCbkC4F3y_n1LF4dj-16" target="3">
          <mxGeometry relative="1" as="geometry" />
        </mxCell>
        <mxCell id="11" value="" style="endArrow=block;endFill=1;strokeColor=#000000;edgeStyle=orthogonalEdgeStyle;rounded=0;" edge="1" parent="1" source="bnvGCbkC4F3y_n1LF4dj-22" target="6">
          <mxGeometry relative="1" as="geometry" />
        </mxCell>
        <mxCell id="bnvGCbkC4F3y_n1LF4dj-13" value="" style="endArrow=none;endFill=0;strokeColor=#000000;edgeStyle=orthogonalEdgeStyle;rounded=0;" edge="1" parent="1" source="3" target="bnvGCbkC4F3y_n1LF4dj-11">
          <mxGeometry relative="1" as="geometry">
            <mxPoint x="630" y="340" as="sourcePoint" />
            <mxPoint x="770" y="340" as="targetPoint" />
          </mxGeometry>
        </mxCell>
        <mxCell id="bnvGCbkC4F3y_n1LF4dj-11" value="" style="verticalLabelPosition=bottom;html=1;verticalAlign=top;align=center;strokeColor=none;fillColor=#00BEF2;shape=mxgraph.azure.sql_database;" vertex="1" parent="1">
          <mxGeometry x="680" y="315" width="37.5" height="50" as="geometry" />
        </mxCell>
        <mxCell id="bnvGCbkC4F3y_n1LF4dj-17" value="" style="endArrow=none;endFill=0;strokeColor=#000000;edgeStyle=orthogonalEdgeStyle;rounded=0;" edge="1" parent="1" source="5" target="bnvGCbkC4F3y_n1LF4dj-16">
          <mxGeometry relative="1" as="geometry">
            <mxPoint x="730" y="570" as="sourcePoint" />
            <mxPoint x="520" y="390" as="targetPoint" />
          </mxGeometry>
        </mxCell>
        <mxCell id="bnvGCbkC4F3y_n1LF4dj-16" value="" style="shape=image;verticalLabelPosition=bottom;labelBackgroundColor=default;verticalAlign=top;aspect=fixed;imageAspect=0;editableCssRules=.*;image=data:image/svg+xml,PHN2ZyB4bWxucz0iaHR0cDovL3d3dy53My5vcmcvMjAwMC9zdmciIGhlaWdodD0iNzk0LjkyMDgzNzQwMjM0MzgiIHdpZHRoPSI4NjIuNDc5MTI1OTc2NTYyNSIgdmVyc2lvbj0iMS4xIiBpZD0ic3ZnMiIgdmlld0JveD0iNy40NTA1ODA1OTY5MjM4MjhlLTkgMCA4NjIuNDc5MTI1OTc2NTYyNSA3OTQuOTIwODM3NDAyMzQzOCI+JiN4YTsgIDxtZXRhZGF0YSBpZD0ibWV0YWRhdGE4Ij4mI3hhOyAgICAmI3hhOyAgICAgICYjeGE7ICAgICAgICBpbWFnZS9zdmcreG1sJiN4YTsgICAgICAgICYjeGE7ICAgICAgICAmI3hhOyAgICAgICYjeGE7ICAgICYjeGE7ICA8L21ldGFkYXRhPiYjeGE7ICA8ZGVmcyBpZD0iZGVmczYiLz4mI3hhOyAgJiN4YTsgIDxwYXRoIGQ9Im0gMTc5LjQ4NzExLDcwNC41MTMxNSBjIDI1LjY3MzEsLTYuNjg3IDQ1LjUxMTA2LC0yNC45NzA2NyA1My4xMzIsLTQ4Ljk2OTE1IDEyLjgzMzQ4LC00MC40MTI4OCAtOC45ODc5OSwtODIuMDY3NzcgLTQ5LjU5NDU2LC05NC42NzA4MiAtNi40MTYxMiwtMS45OTEzNyAtOS41MjMyNCwtMi4zMTcxNCAtMjEuNSwtMi4yNTQyMyAtMTIuNTE3NjksMC4wNjU4IC0xNC44NDcwMywwLjM2Mjc0IC0yMiwyLjgwNDg5IC00LjQsMS41MDIyNSAtMTEuMTUsNC41NzU4OSAtMTUsNi44MzAzMiAtOC4zNTU2MSw0Ljg5Mjc3IC0yMS41OTUzMywxNy45ODIwNSAtMjYuMzY1MjU2LDI2LjA2NTY5IC05LjM0OTAyLDE1Ljg0MzgyIC0xMi42MTAzNTgsMzcuNDg0NjkgLTguMjUxMTA1LDU0Ljc1MDggNy43NjQ4MjMsMzAuNzU0ODkgMzEuMjExMTkxLDUyLjExOTQ2IDYyLjU5MjkxMSw1Ny4wMzUzMSA2LjI2NzE4LDAuOTgxNzMgMjAuMjc2MjIsMC4xNTQ4NyAyNi45ODYwMSwtMS41OTI4MSB6IG0gLTc4Ljk2MjU2LDg0LjY1OTY2IC0xNS45OTk5OTYsLTYuNjU5NTggMC4wNDAzLC01LjQ4MzkxIGMgMC4wMjIxNywtMy4wMTYxNSAwLjQxNzg2NCwtMTIuNjk3NzQgMC44NzkzMjgsLTIxLjUxNDY0IGwgMC44MzkwMjYsLTE2LjAzMDc0IC02Ljk2MjQ2NSwtNS42OTYyMSBjIC02Ljk4MjQ0LC01LjcxMjU1IC0xNC4wOTk4MzIsLTEyLjg3OTMyIC0xOS45ODA4OCwtMjAuMTE5NSBsIC0zLjE0OTM1MSwtMy44NzcxNyAtMjAuMTQ2NTg3LDEuMjc3ODUgYyAtMTcuMTY2ODg5LDEuMDg4ODYgLTIwLjMzODA0NywxLjA3MDcgLTIxLjQ0MTEwOCwtMC4xMjI4MiBDIDEyLjY2NzM2NSw3MDguODUxOTIgMS44NDE0MjM0LDY4MC45NjUwMiAyLjM5OTQxMDEsNjc5LjUxMDkzIDIuNjY0Nzk2NSw2NzguODE5MzUgOS4zNTg2NzI4LDY3Mi43OTMyMiAxNy4yNzQ2OTEsNjY2LjExOTU0IEwgMzEuNjY3NDUxLDY1My45ODU1NyAzMS40OTg5NjQsNjMzLjc2NTQ5IDMxLjMzMDQ3OCw2MTMuNTQ1NDEgMTYuMjEzMDg3LDYwMC41MzA5OCBDIDcuODk4NTIyMiw1OTMuMzczMDUgMC42MzUwMzU5Miw1ODcuMDU1ODkgMC4wNzIwMDY0Miw1ODYuNDkyODYgLTAuOTg4ODk5ODcsNTg1LjQzMTk2IDkuOTg1MzE2OCw1NTYuODUwNTQgMTIuNDQ5Njc5LDU1NC4yNTYyNyBjIDAuOTk5NDIxLC0xLjA1MjExIDQuOTgwMTQsLTEuMDQyNTUgMjEuNjQ5NzMsMC4wNTIgbCAyMC40MjUxNDUsMS4zNDEwNyAzLC0zLjA3Nzg2IGMgMS42NSwtMS42OTI4MiA1LjcsLTYuMDE3MzEgOSwtOS42MDk5NyAzLjMsLTMuNTkyNjYgOC42NTQ2NjgsLTguODExMTIgMTEuODk5MjYyLC0xMS41OTY1NyBsIDUuODk5MjYyLC01LjA2NDQ2IC0xLjMxODYxNywtMjIuMjEzODUgYyAtMS4xMzQzOTEsLTE5LjExMDMyIC0xLjEyMDMxNiwtMjIuMzM4OTIgMC4xMDA3MzgsLTIzLjEwOTA1IDMuNDM4OTQ5LC0yLjE2ODk4IDI5LjM1NjI1MSwtMTIuMDA2NiAzMC45MTM3NTEsLTExLjczNDE3IDAuOTQ5NTgsMC4xNjYxIDcuOTEzMzYsNy42MDM4NiAxNS40NzUwNywxNi41MjgzNSBsIDEzLjc0ODU1LDE2LjIyNjM0IDEzLjY0MDk5LC0wLjU3NTQ4IGMgNy41MDI1NCwtMC4zMTY1MSAxNi4zNDA5OSwtMC4xMjg2NCAxOS42NDA5OSwwLjQxNzQ5IDMuMywwLjU0NjEzIDYuNjc1LDAuNjE2NzUgNy41LDAuMTU2OTMgMC44MjUsLTAuNDU5ODIgNy4xMjUsLTcuNTc3MTMgMTQsLTE1LjgxNjI1IDYuODc1LC04LjIzOTEyIDEzLjA3NzM3LC0xNS4yMzE3MSAxMy43ODMwNCwtMTUuNTM5MDkgMS4yMDMzOCwtMC41MjQxOCAzMC44MTM5MiwxMC42ODk1NSAzMi40ODkwNiwxMi4zMDM4NSAwLjQyNDY2LDAuNDA5MjMgMC4xMDA4OSwxMC42MDY4NyAtMC43MTk0OCwyMi42NjE0MiBsIC0xLjQ5MTU4LDIxLjkxNzM1IDkuMjU3MDUsOS4wMTA1NSBjIDUuMDkxMzgsNC45NTU3OSAxMS4yODQ4NSwxMS4zNTk4MSAxMy43NjMyNywxNC4yMzExMyA0LjA5OTMyLDQuNzQ5MTggNC44MTgzMiw1LjE4MDQ2IDcuOTYyNDMsNC43NzYwOSA3LjMzMjY0LC0wLjk0MzA2IDM5Ljg5MzkxLC0yLjY1MzIxIDQwLjcyNTk3LC0yLjEzODk4IDAuNDgyMTcsMC4yOTggMy43MzY3Myw3LjU5OTg0IDcuMjMyMzQsMTYuMjI2MyBsIDYuMzU1NjcsMTUuNjg0NDkgLTQuNDM3MTYsNC4xMTU3NSBjIC0yLjQ0MDQ0LDIuMjYzNjcgLTEwLjEzMzQ0LDguOTMxNzQgLTE3LjA5NTU1LDE0LjgxNzk0IGwgLTEyLjY1ODM5LDEwLjcwMjE3IC0wLjM2NzUzLDE3Ljc5NzgzIGMgLTAuMjAyMTUsOS43ODg4IC0wLjEyNzE1LDE4LjMwMDAxIDAuMTY2NjYsMTguOTEzNzkgMC4yOTM4MSwwLjYxMzc4IDcuMjg0Miw2LjgzNDc4IDE1LjUzNDIsMTMuODI0NDQgOC4yNSw2Ljk4OTY2IDE1LjI5OTQsMTMuMjQxOTMgMTUuNjY1MzIsMTMuODkzOTMgMC41OTkzOSwxLjA2Nzk3IC0xMC44MTQyOSwzMC42NDc5NiAtMTIuNDYxMjUsMzIuMjk0OTIgLTAuMzc2MjQsMC4zNzYyNCAtMTAuMDUwMDcsMC4xMDkzOSAtMjEuNDk3NCwtMC41OTI5OSBsIC0yMC44MTMzMywtMS4yNzcwNyAtMTQuNzI2OCwxNC43MjY4IC0xNC43MjY4LDE0LjcyNjggMS4xMjAxNiwxNy4xNDM2IGMgMC42MTYwOCw5LjQyODk4IDAuOTY3MTQsMTguOTIyMiAwLjc4MDEzLDIxLjA5NjA1IGwgLTAuMzQwMDMsMy45NTI0NCAtMTUuNDY2MTcsNi4xODMyMiBjIC04LjUwNjQsMy40MDA3NyAtMTUuOTMxNCw1Ljk3ODA3IC0xNi41LDUuNzI3MzQgLTAuNTY4NjEsLTAuMjUwNzMgLTYuNzgxNjEsLTcuMjg2NzggLTEzLjgwNjY3LC0xNS42MzU2NiBsIC0xMi43NzI4NCwtMTUuMTc5NzkgLTE5LjIwODY3LDAuMjY3MjMgYyAtMTMuNjU1NywwLjE4OTk3IC0xOS41MzI1LDAuNjIzNiAtMjAuMzI4ODMsMS41IC0wLjYxNjA5LDAuNjc4MDIgLTYuNDMzMDUsNy41MzI3NyAtMTIuOTI2NTcsMTUuMjMyNzcgLTYuNDkzNTMsNy43IC0xMi4yOTc3NywxNC41MTQ1NyAtMTIuODk4MzMsMTUuMTQzNDggLTAuODEyMjEsMC44NTA1NiAtNS4xOTA1OCwtMC41NjI0NyAtMTcuMDkxOTIsLTUuNTE2MDggeiIgc3R5bGU9ImZpbGw6I2UxNTYxNztmaWxsLW9wYWNpdHk6MSIgaWQ9InBhdGg0NTExIi8+JiN4YTsgIDxwYXRoIGQ9Im0gNDY3LjY1NDI2LDYzNC44MTg4NiBjIC0wLjc5NTkzLC0xLjI1MDQgLTMuOTg4MjIsLTEwLjE0ODQ1IC03LjA5Mzk5LC0xOS43NzM0NSAtMy4xMDU3NywtOS42MjUgLTYuMTg0MzUsLTE4LjAyMDE1IC02Ljg0MTI5LC0xOC42NTU4OSAtMC42NTY5NCwtMC42MzU3NCAtNi4xNDQ0MywtMS45MDc1NiAtMTIuMTk0NDMsLTIuODI2MjUgLTYuMDUsLTAuOTE4NyAtMTUuMzkxNCwtMi43NDU0MyAtMjAuNzU4NjcsLTQuMDU5NCAtNS4zNjcyNywtMS4zMTM5NyAtMTAuMzE3MjcsLTIuMTUxNzcgLTExLC0xLjg2MTc3IC0wLjY4MjczLDAuMjg5OTkgLTcuMDkxMzMsNy41MTQ4OCAtMTQuMjQxMzMsMTYuMDU1MyAtNy4xNSw4LjU0MDQyIC0xMy4zNTg3NywxNS43NTIyNCAtMTMuNzk3MjcsMTYuMDI2MjYgLTEuMzI1OTgsMC44Mjg2IC0zMS44Mjk3NCwtMTEuODQ1NjUgLTMyLjQ1OTU0LC0xMy40ODY4OCAtMC4zMjE5NywtMC44MzkwNiAtMC4wMTM3LC0xMC43Nzk5MSAwLjY4NDk2LC0yMi4wOTA3NyAxLjIxNDczLC0xOS42NjQ2NiAxLjE4OTM4LC0yMC42MjI2NyAtMC41Nzg4OSwtMjEuODc3MTMgLTEuMDE3MDksLTAuNzIxNTUgLTYuMzQ5MjYsLTQuMDc1NjggLTExLjg0OTI2LC03LjQ1MzYyIC01LjUsLTMuMzc3OTUgLTEzLjg4ODQ1LC04Ljk4MzA1IC0xOC42NDEsLTEyLjQ1NTc4IC00Ljc1MjU1LC0zLjQ3Mjc0IC05LjM3MDM1LC02LjMxNDA3IC0xMC4yNjE3NiwtNi4zMTQwNyAtMC44OTE0MiwwIC04LjgxMDE4LDMuNiAtMTcuNTk3MjQsOCAtOC43ODcwNiw0LjQgLTE2LjU1MTMsOCAtMTcuMjUzODcsOCAtMS42NDU4OSwwIC0yNC43NDYxMywtMjMuMTI4MjQgLTI0Ljc0NjEzLC0yNC43NzYxMyAwLC0wLjY4NTM1IDMuODQyNDIsLTguOTIwODkgOC41Mzg3MiwtMTguMzAxMiBsIDguNTM4NzEsLTE3LjA1NTEyIC01LjM5OTUxLC03LjE4Mzc4IGMgLTYuNTMwOTgsLTguNjg5MTIgLTE2LjYzNzUsLTI0LjAwMTUyIC0yMC4zODAwNiwtMzAuODc3ODMgbCAtMi43MzU0MSwtNS4wMjU4NiAtMTQuNTMxMjMsMC44NDI0NyBjIC03Ljk5MjE3LDAuNDYzMzYgLTE3LjQ1NjIyLDAuODUwMzQgLTIxLjAzMTIyLDAuODU5OTYgbCAtNi41LDAuMDE3NSAtNi4xNjkxMiwtMTUgYyAtMy4zOTMwMSwtOC4yNSAtNi4yMDU1MSwtMTUuNTQ4MjggLTYuMjUsLTE2LjIxODM5IC0wLjA0NDUsLTAuNjcwMTIgNi4xMDY2MiwtNi40NzcxIDEzLjY2OTEyLC0xMi45MDQ0IDcuNTYyNSwtNi40MjczIDE0LjU4NDMsLTEyLjQ2MzMyIDE1LjYwNCwtMTMuNDEzMzggMS44MDI4NywtMS42Nzk3NSAxLjc4MjIzLC0yLjA0MDk0IC0wLjc0ODI4LC0xMy4wOTU2MSAtMS40MzEyNSwtNi4yNTI1MyAtMy4zMDU2NywtMTUuODY4MjMgLTQuMTY1MzcsLTIxLjM2ODIzIC0wLjg1OTcsLTUuNSAtMi4wMDczNiwtMTAuNDUgLTIuNTUwMzUsLTExIC0wLjU0MywtMC41NSAtOS42Mjc4OSwtMy45MjUgLTIwLjE4ODY0LC03LjUgbCAtMTkuMjAxMzYsLTYuNSB2IC0xNy45MTY0NiAtMTcuOTE2NDcgbCAyMCwtNi42NjYyNCAyMCwtNi42NjYyNCAyLjA5ODc3LC0xMi40MTczIGMgMS4xNTQzMywtNi44Mjk1MSAzLjA2NjgzLC0xNi42MTM3OCA0LjI1LC0yMS43NDI4MiAxLjE4MzE4LC01LjEyOTA0IDIuMTUxMjMsLTkuOTMyNTMgMi4xNTEyMywtMTAuNjc0NDIgMCwtMC43NDE4OSAtNi45NzUsLTcuMjgxMjcgLTE1LjUsLTE0LjUzMTk2IC04LjUyNSwtNy4yNTA2OCAtMTUuNDg4LC0xMy42OTcxOSAtMTUuNDczMzQsLTE0LjMyNTU3IDAuMDE0NywtMC42MjgzOSAyLjgzMzkyLC03Ljg5MjUyIDYuMjY1MDIsLTE2LjE0MjUyIGwgNi4yMzgzNiwtMTUgNy45ODQ5OCwwLjAwNiBjIDQuMzkxNzQsMC4wMDMgMTQuMDMyODIsMC4yMjgxNiAyMS40MjQ2MiwwLjUgbCAxMy40Mzk2NSwwLjQ5NCA2LjQyOTc2LC0xMC41IGMgMy41MzYzNiwtNS43NzUgOS4xODg1MiwtMTQuMjU4MzEgMTIuNTYwMzUsLTE4Ljg1MTgxIDMuMzcxODMsLTQuNTkzNDkgNi43MTgxMiwtOS4xNjEwMSA3LjQzNjIsLTEwLjE1MDA0IDEuMTM3MzEsLTEuNTY2NDQgMC4yMDI3MywtNC4wMDExMSAtNy4yNSwtMTguODg3MDkgLTQuNzA1NTgsLTkuMzk4ODYgLTguNTU1NiwtMTcuNjQ5NTggLTguNTU1NiwtMTguMzM0OTMgMCwtMS42NDc0OSAyMy4xMDAwMywtMjQuNzc2MTMgMjQuNzQ1NDgsLTI0Ljc3NjEzIDAuNzAyMiwwIDguOTY2NzIsMy44NTAwMiAxOC4zNjU1OCw4LjU1NTYgMTQuODYwNDQsNy40Mzk5NCAxNy4zMjExMiw4LjM4NTM2IDE4Ljg3MDAxLDcuMjUgMTQuNDEzODksLTEwLjU2NTQ3IDIzLjIwMzQ5LC0xNi41NTgwNyAzMS4yNjg5MywtMjEuMzE4NTkgbCA5Ljc1LC01Ljc1NDgxIC0wLjAwOSwtNS42MTYxIGMgLTAuMDA1LC0zLjA4ODg2IC0wLjQ2MTM2LC0xMS44OTM0OSAtMS4wMTQ1MiwtMTkuNTY1ODYgLTAuNzkyOTEsLTExLjAwMDc0IC0wLjczODIsLTE0LjE5Mjk4IDAuMjU5LC0xNS4xMDAyNCAxLjc0OTU0LC0xLjU5MTc1IDI4LjU5NDIzLC0xMi40NSAzMC43Nzk5NCwtMTIuNDUgMS4wNTc4LDAgNi43Mzk0Myw1Ljg5NTU3IDE0LjA1OTA5LDE0LjU4ODQ5IDE0LjA3MjUxLDE2LjcxMjY4IDEwLjYxMDE2LDE1LjQyNjk0IDI5LjkyNTQ5LDExLjExMjc5IDYuMzI1LC0xLjQxMjcxIDE1LjMyMjk3LC0zLjA4NTAxIDE5Ljk5NTQ4LC0zLjcxNjIxIDQuNjcyNTIsLTAuNjMxMjEgOS4wMzM3NCwtMS41OTQzNiA5LjY5MTYxLC0yLjE0MDM0IDAuNjU3ODYsLTAuNTQ1OTggMy43MzgxOCwtOC42MTk2MiA2Ljg0NTE0LC0xNy45NDE0MiBMIDQ2OC4yMDU3OSwwIGwgMTcuNTc2NjgsMC4yNzI3MSAxNy41NzY2NywwLjI3MjcgNS41ODI3MSwxNi41MjI4OCBjIDMuMDcwNDgsOS4wODc1OCA1LjkyNzI5LDE3LjA0MzU4IDYuMzQ4NDYsMTcuNjgwMDEgMC40MjExNywwLjYzNjQyIDMuMzQ2MTcsMS40NTg4OSA2LjUsMS44Mjc3IDcuNDUwNzQsMC44NzEyOCAzNC41Mjc5MSw2LjI1MDM3IDM3Ljg4MTczLDcuNTI1NDggMy4yODc1OCwxLjI0OTk0IDMuMDk1NjUsMS40MTQ5MyAxNi4wMDE2LC0xMy43NTQ0NSA1Ljc1NjM1LC02Ljc2NTg5IDExLjA4MDI2LC0xMi4zMDE2MiAxMS44MzA5LC0xMi4zMDE2MiAwLjc1MDY0LDAgOC4xNDk3MiwyLjc1OTQgMTYuNDQyNCw2LjEzMjAxIGwgMTUuMDc3NjEsNi4xMzIgLTAuMTAwMjEsNy42MTggYyAtMC4wNTUxLDQuMTg5ODkgLTAuMzkyNjIsMTIuMDk0NjYgLTAuNzUsMTcuNTY2MTYgLTAuNTI5NTIsOC4xMDY4MyAtMC4zNzIxNSwxMC4yNDk2NCAwLjg1MDIxLDExLjU3Njk0IDAuODI1LDAuODk1ODMgNi4yNTQ3Miw0LjQ0MjI3IDEyLjA2NjA0LDcuODgwOTggNS44MTEzMywzLjQzODcxIDE1LjE3MDU4LDkuNjQxMjUgMjAuNzk4MzUsMTMuNzgzNDMgbCAxMC4yMzIzLDcuNTMxMjQgMTYuODU3ODQsLTguNjEwMzggYyA5LjI3MTgyLC00LjczNTcxIDE3LjQ2OTYsLTguNjEwMzggMTguMjE3MjksLTguNjEwMzggMS43MDI0OSwwIDI0LjgyODE4LDIzLjA3NzgxIDI0LjgyODE4LDI0Ljc3Njc4IDAsMC42ODU3MSAtMy42LDguNDM2MTYgLTgsMTcuMjIzMjIgLTQuNCw4Ljc4NzA2IC04LDE2Ljg0NzI0IC04LDE3LjkxMTUxIDAsMS4wNjQyNyAxLjA2MjQxLDMuMjA3MDcgMi4zNjA5Miw0Ljc2MTc2IDMuNzE5NTksNC40NTM0OCAxNi44OTUyNCwyNC4xMzM3NSAyMS4yMTUyOCwzMS42ODg5NSBsIDMuOTIzOCw2Ljg2MjIzIDE1LjUsLTAuODA3NjggYyA4LjUyNSwtMC40NDQyMiAxNy4yOTg4NiwtMC44MzIyMiAxOS40OTc0NiwtMC44NjIyMiBsIDMuOTk3NDYsLTAuMDU0NiA2LjE3MTY1LDE1IGMgMy4zOTQ0Miw4LjI1IDYuMjA4MDYsMTUuNjgyNDIgNi4yNTI1NSwxNi41MTY0OSAwLjA0NDUsMC44MzQwNyAtNi4yMTkxMiw2LjgzNzggLTEzLjkxOTEyLDEzLjM0MTYxIC04LjY2NjgxLDcuMzIwNDQgLTE0LDEyLjUyNzg0IC0xNCwxMy42Njk4MSAwLDEuMDE0NTcgMS4xMTI3OSw2LjQ0MDM4IDIuNDcyODcsMTIuMDU3MzUgMS4zNjAwOCw1LjYxNjk3IDMuMTg5NSwxNS4yMDgxNCA0LjA2NTM5LDIxLjMxMzcxIDAuODc1ODksNi4xMDU1NiAxLjkzMjY0LDExLjc0OTA5IDIuMzQ4MzUsMTIuNTQxMTYgMC40MTU3MSwwLjc5MjA3IDguMzczNzgsMy45NzkzMSAxNy42ODQ2MSw3LjA4Mjc0IGwgMTYuOTI4NzgsNS42NDI2MiAwLjI3MTY1LDE3LjkzMTQ3IDAuMjcxNjQsMTcuOTMxNDggLTE3LjUyMDc5LDUuODA4MjkgYyAtMTQuNzkyMzcsNC45MDM3OSAtMTcuNTk0MjMsNi4xNDczOCAtMTcuOTkyMzUsNy45ODU3OCAtMC4yNTkzNSwxLjE5NzYyIC0xLjM3OTAyLDcuNzEyNzIgLTIuNDg4MTQsMTQuNDc4MDEgLTEuMTA5MTMsNi43NjUyOCAtMi45MjIzMiwxNS45Mzk2IC00LjAyOTMsMjAuMzg3MzggLTEuMTA2OTksNC40NDc3NyAtMi4wMTI3MSw4LjU5ODggLTIuMDEyNzEsOS4yMjQ1IDAsMC42MjU3MSA2LjMsNi40NjcyIDE0LDEyLjk4MTEgNy43LDYuNTEzOSAxNC4wMDUxOCwxMi4zNTI2NCAxNC4wMTE1MSwxMi45NzQ5OCAwLjAyMTgsMi4xNDgxOCAtMTIuMzYzNDMsMzEuNTUyNDEgLTEzLjQzNjAxLDMxLjg5ODc5IC0wLjU5MTUyLDAuMTkxMDMgLTguNzI1NSwtMC4xNTc2OCAtMTguMDc1NSwtMC43NzQ5MSAtOS4zNSwtMC42MTcyMyAtMTcuNTQzMjgsLTAuOTM5NzQgLTE4LjIwNzMsLTAuNzE2NyAtMC42NjQwMSwwLjIyMzA1IC00LjIwOTI0LDUuNDI3MjcgLTcuODc4MjksMTEuNTY0OTQgLTMuNjY5MDUsNi4xMzc2NyAtOS45ODgyNiwxNS43MzIxOCAtMTQuMDQyNywyMS4zMjExNCAtNC4wNTQ0NCw1LjU4OTAxIC03LjM3MTcxLDEwLjg4MTggLTcuMzcxNzEsMTEuNzYxODEgMCwwLjg4MDAxIDMuNiw4Ljc4OTQ0IDgsMTcuNTc2NSA0LjQsOC43ODcwNiA4LDE2Ljc3NjYxIDgsMTcuNzU0NTUgMCwyLjI5NjUyIC0yMS45Nzc4NiwyNC4yNDU0NSAtMjQuMjc3NDEsMjQuMjQ1NDUgLTAuOTYwMzYsMCAtOC45MzU1MywtMy42IC0xNy43MjI1OSwtOCAtOC43ODcwNiwtNC40IC0xNi42ODU2NCwtOCAtMTcuNTUyMzksLTggLTAuODY2NzQsMCAtNi41NDY5NywzLjU5NzM2IC0xMi42MjI3MSw3Ljk5NDEyIC02LjA3NTc0LDQuMzk2NzcgLTE1LjAzMDIyLDEwLjI5MzA5IC0xOS44OTg4MywxMy4xMDI5MyAtNC44Njg2MiwyLjgwOTg1IC05LjM3NzY4LDUuNzQyMTggLTEwLjAyMDE1LDYuNTE2MyAtMC44OTExNSwxLjA3Mzc4IC0wLjg3OTI4LDUuOTM2NzMgMC4wNTAxLDIwLjUxIDAuNjY5OTksMTAuNTA2MzggMC44NDE0OCwxOS40MzY5NyAwLjM4MTA5LDE5Ljg0NTc1IC0wLjgzMzUyLDAuNzQwMDYgLTMwLjcyNjY5LDEzLjAzMDkgLTMxLjY5MzE1LDEzLjAzMDkgLTAuMjc5MTEsMCAtNi4yMzg0NywtNi43NSAtMTMuMjQzMDIsLTE1IC03LjAwNDU0LC04LjI1IC0xMy4yNjgyMSwtMTUgLTEzLjkxOTI3LC0xNSAtMC42NTEwNSwwIC01LjYzODI3LDEuMDkwNjkgLTExLjA4MjcsMi40MjM3NSAtNS40NDQ0MywxLjMzMzA2IC0xNC44NDg5NywzLjE3NzU5IC0yMC44OTg5Nyw0LjA5ODk0IC02LjA1LDAuOTIxMzYgLTExLjQ1LDIuMDk5NDcgLTEyLDIuNjE4MDIgLTAuNTUsMC41MTg1NSAtMy45NjIxNiw5LjgxMTUzIC03LjU4MjU4LDIwLjY1MTA2IGwgLTYuNTgyNTksMTkuNzA4MjMgLTE3LjEyOSwwLjI3MzQ1IGMgLTE2Ljg2NTYxLDAuMjY5MjQgLTE3LjE1MTI1LDAuMjM4NDkgLTE4LjU3NjEyLC0yIHogbSA1Mi44OTY1NiwtMTc2LjMxMTAxIGMgNS44NTg1LC0xLjU2MTc0IDE3Ljg0MTgsLTYuMzk2MDcgMjYuNjI5NTYsLTEwLjc0Mjk3IDM2LjI5NjA5LC0xNy45NTQwNCA2MS4wMTcwMiwtNDYuNzk1MDYgNzQuMjE4MjgsLTg2LjU4Nzc5IDQuOTM5NTcsLTE0Ljg4OTM2IDUuNDEwNjUsLTE4LjM5MDAxIDUuNTM0NzQsLTQxLjEyODgyIDAuMTE0MTYsLTIwLjkxNjc1IC0wLjUxMTg1LC0yNy4xMDQyNSAtMy45NTE1MiwtMzkuMDU2NjggLTExLjkyODU1LC00MS40NTAzNyAtMzkuODI0NjEsLTc0LjY4Njc3IC03Ny41NzY4MSwtOTIuNDI3OTIgLTIzLjIxMzM0LC0xMC45MDg4IC0zNi43NTk0MiwtMTMuOTM3MyAtNjIuMTM1NjMsLTEzLjg5MTY4IC0yMi40Nzc3MywwLjA0MDUgLTM0LjgzODEsMi4zNzcxMyAtNTQuNDI2OSwxMC4yODk0IC0xOC4zNzY2OCw3LjQyMjY4IC0zMC4zNTM3NSwxNS43MDEzOSAtNDcuNzQ2MDEsMzMuMDAyNjcgLTE1LjAxNjc5LDE0LjkzODI0IC0xNy45OTk0OSwxOS4wMDM3NyAtMjYuMDUyMzQsMzUuNTEwMzIgLTEyLjQzNzY5LDI1LjQ5NDQzIC0xNS40MzU2NSwzOC4yODQwNSAtMTUuMzk3MjEsNjUuNjg2MjQgMC4wMjQzLDE3LjM2NDE4IDAuODczODYsMjUuMTc1NjkgMy45MDUzNSwzNS45MTExOSAxNS41NzYzLDU1LjE2MDUyIDYwLjAxMTA5LDk2LjA3Mjk2IDExNS4zMTM5MiwxMDYuMTcyOTkgMTIuMTc1MzYsMi4yMjM1OCA0OS4yNDYzNSwwLjU3ODc1IDYxLjY4NDU3LC0yLjczNjk1IHoiIHN0eWxlPSJmaWxsOiMwMDAwMDA7ZmlsbC1vcGFjaXR5OjEiIGlkPSJwYXRoMjk4NyIvPiYjeGE7ICA8ZyBpZD0iZzQ1NDciPiYjeGE7ICAgIDxnIGlkPSJ0ZXh0NDUyMyIgc3R5bGU9ImZvbnQtZmFtaWx5OidVYnVudHUgTW9ubyciPiYjeGE7ICAgICAgPHBhdGggaWQ9InBhdGgzNDIyIiBzdHlsZT0iZm9udC1zdHlsZTpub3JtYWw7Zm9udC12YXJpYW50Om5vcm1hbDtmb250LXdlaWdodDpib2xkO2ZvbnQtc3RyZXRjaDpub3JtYWw7Zm9udC1zaXplOjE3NXB4O3RleHQtYWxpZ246c3RhcnQ7d3JpdGluZy1tb2RlOmxyLXRiO3RleHQtYW5jaG9yOnN0YXJ0O2ZpbGw6IzAwMDAwMDtmaWxsLW9wYWNpdHk6MSIgZD0ibSA0MjIuMjcyNTYsNzQ1LjgyNDQ0IHEgMCw3Ljg3NSAtMi4xLDE0Ljg3NSAtMS45MjUsNyAtNi42NSwxMi4yNSAtNC41NSw1LjI1IC0xMS45LDguNCAtNy4zNSwyLjk3NSAtMTcuODUsMi45NzUgLTExLjAyNSwwIC0xOC4zNzUsLTIuOCAtNy4zNSwtMi44IC0xMi40MjUsLTYuODI1IGwgOC4yMjUsLTE3LjE1IHEgNC4zNzUsMi44IDkuNjI1LDUuNDI1IDUuNDI1LDIuNjI1IDExLjAyNSwyLjYyNSA4LjQsMCAxMy40NzUsLTQuMzc1IDUuMjUsLTQuNTUgNS4yNSwtMTYuNjI1IGwgMCwtNTMuMDI1IC0zNi4yMjUsMCAwLC0xNy44NSA1Ny45MjUsMCAwLDcyLjEgeiIvPiYjeGE7ICAgICAgPHBhdGggaWQ9InBhdGgzNDI0IiBzdHlsZT0iZm9udC1zdHlsZTpub3JtYWw7Zm9udC12YXJpYW50Om5vcm1hbDtmb250LXdlaWdodDpib2xkO2ZvbnQtc3RyZXRjaDpub3JtYWw7Zm9udC1zaXplOjE3NXB4O3RleHQtYWxpZ246c3RhcnQ7d3JpdGluZy1tb2RlOmxyLXRiO3RleHQtYW5jaG9yOnN0YXJ0O2ZpbGw6IzAwMDAwMDtmaWxsLW9wYWNpdHk6MSIgZD0ibSA1MTUuNzIyNTYsNzQwLjc0OTQ0IHEgMCw5LjggLTIuOCwxNy44NSAtMi44LDcuODc1IC03Ljg3NSwxMy42NSAtNS4wNzUsNS43NzUgLTEyLjI1LDguOTI1IC03LDMuMTUgLTE1Ljc1LDMuMTUgLTguNzUsMCAtMTUuOTI1LC0zLjE1IC03LC0zLjE1IC0xMi4yNSwtOC45MjUgLTUuMDc1LC01Ljc3NSAtNy44NzUsLTEzLjY1IC0yLjgsLTguMDUgLTIuOCwtMTcuODUgMCwtOS42MjUgMi44LC0xNy41IDIuOTc1LC04LjA1IDguMDUsLTEzLjY1IDUuMjUsLTUuNzc1IDEyLjQyNSwtOC43NSA3LjE3NSwtMy4xNSAxNS41NzUsLTMuMTUgOC41NzUsMCAxNS41NzUsMy4xNSA3LjE3NSwyLjk3NSAxMi4yNSw4Ljc1IDUuMjUsNS42IDguMDUsMTMuNjUgMi44LDcuODc1IDIuOCwxNy41IHogbSAtNTUuNjUsMC4xNzUgcSAwLDExLjAyNSAzLjg1LDE3Ljg1IDQuMDI1LDYuODI1IDEyLjc3NSw2LjgyNSA4LjQsMCAxMi42LC02LjgyNSA0LjM3NSwtNi44MjUgNC4zNzUsLTE3Ljg1IDAsLTExLjAyNSAtNC4wMjUsLTE3LjY3NSAtMy44NSwtNi44MjUgLTEyLjYsLTYuODI1IC04LjQsMCAtMTIuNzc1LDYuODI1IC00LjIsNi42NSAtNC4yLDE3LjY3NSB6Ii8+JiN4YTsgICAgICA8cGF0aCBpZD0icGF0aDM0MjYiIHN0eWxlPSJmb250LXN0eWxlOm5vcm1hbDtmb250LXZhcmlhbnQ6bm9ybWFsO2ZvbnQtd2VpZ2h0OmJvbGQ7Zm9udC1zdHJldGNoOm5vcm1hbDtmb250LXNpemU6MTc1cHg7dGV4dC1hbGlnbjpzdGFydDt3cml0aW5nLW1vZGU6bHItdGI7dGV4dC1hbmNob3I6c3RhcnQ7ZmlsbDojMDAwMDAwO2ZpbGwtb3BhY2l0eToxIiBkPSJtIDU4MC45OTc1Niw3NDAuMzk5NDQgcSAwLC0xMS41NSAtMy44NSwtMTcuNjc1IC0zLjY3NSwtNi4xMjUgLTExLjM3NSwtNi4xMjUgLTMuNSwwIC03LDEuMDUgLTMuMzI1LDAuODc1IC01Ljc3NSwyLjI3NSBsIDAsNDQuNjI1IHEgMi40NSwwLjUyNSA1LjA3NSwwLjcgMi44LDAuMTc1IDQuNzI1LDAuMTc1IDguNCwwIDEzLjMsLTUuNiA0LjksLTUuNzc1IDQuOSwtMTkuNDI1IHogbSAyMS44NzUsMC41MjUgcSAwLDkuOCAtMi42MjUsMTcuODUgLTIuNjI1LDcuODc1IC03LjcsMTMuNDc1IC01LjA3NSw1LjYgLTEyLjQyNSw4Ljc1IC03LjM1LDIuOTc1IC0xNi44LDIuOTc1IC04LjQsMCAtMTcuMTUsLTEuMjI1IC04Ljc1LC0xLjIyNSAtMTQuNywtMy4xNSBsIDAsLTExNS4zMjUgMjEuNTI1LC0zLjY3NSAwLDQxLjEyNSBxIDQuNTUsLTIuMSA4Ljc1LC0yLjggNC4yLC0wLjg3NSA4LjQsLTAuODc1IDguMDUsMCAxNC4xNzUsMy4xNSA2LjEyNSwyLjk3NSAxMC4xNSw4Ljc1IDQuMiw1LjYgNi4zLDEzLjQ3NSAyLjEsNy44NzUgMi4xLDE3LjUgeiIvPiYjeGE7ICAgIDwvZz4mI3hhOyAgICA8ZyBpZD0idGV4dDQ1MjMtMCIgc3R5bGU9ImZvbnQtZmFtaWx5OidVYnVudHUgTW9ubyciPiYjeGE7ICAgICAgPHBhdGggaWQ9InBhdGgzNDE1IiBzdHlsZT0iZm9udC1zdHlsZTpub3JtYWw7Zm9udC12YXJpYW50Om5vcm1hbDtmb250LXdlaWdodDpib2xkO2ZvbnQtc3RyZXRjaDpub3JtYWw7Zm9udC1zaXplOjE3NXB4O3RleHQtYWxpZ246c3RhcnQ7d3JpdGluZy1tb2RlOmxyLXRiO3RleHQtYW5jaG9yOnN0YXJ0O2ZpbGw6I2UxNTYxNztmaWxsLW9wYWNpdHk6MSIgZD0ibSA2ODYuOTU0MTMsNzc4Ljc0MTQ2IHEgLTAuNTI1LDAuMzUgLTIuNDUsMS4yMjUgLTEuNzUsMC44NzUgLTQuNzI1LDEuOTI1IC0yLjk3NSwwLjg3NSAtNy4zNSwxLjU3NSAtNC4yLDAuNyAtOS42MjUsMC43IC0xNC44NzUsMCAtMjEuNywtOC43NSAtNi44MjUsLTguOTI1IC02LjgyNSwtMjUuOSBsIDAsLTY5LjgyNSAtMjIuNzUsMCAwLC0xNy44NSA0NC4yNzUsMCAwLDg5LjI1IHEgMCw4LjQgMy4zMjUsMTEuMzc1IDMuMzI1LDIuOTc1IDguNCwyLjk3NSA2LjQ3NSwwIDEwLjg1LC0xLjc1IDQuMzc1LC0xLjc1IDUuNzc1LC0yLjI3NSBsIDIuOCwxNy4zMjUgeiIvPiYjeGE7ICAgICAgPHBhdGggaWQ9InBhdGgzNDE3IiBzdHlsZT0iZm9udC1zdHlsZTpub3JtYWw7Zm9udC12YXJpYW50Om5vcm1hbDtmb250LXdlaWdodDpib2xkO2ZvbnQtc3RyZXRjaDpub3JtYWw7Zm9udC1zaXplOjE3NXB4O3RleHQtYWxpZ246c3RhcnQ7d3JpdGluZy1tb2RlOmxyLXRiO3RleHQtYW5jaG9yOnN0YXJ0O2ZpbGw6I2UxNTYxNztmaWxsLW9wYWNpdHk6MSIgZD0ibSA3NDIuNDI5MTMsNjc2LjM2NjQ2IHEgMCw2LjMgLTQuMDI1LDkuOTc1IC00LjAyNSwzLjY3NSAtOS42MjUsMy42NzUgLTUuNiwwIC05LjYyNSwtMy42NzUgLTMuODUsLTMuNjc1IC0zLjg1LC05Ljk3NSAwLC02LjQ3NSAzLjg1LC0xMC4xNSA0LjAyNSwtMy42NzUgOS42MjUsLTMuNjc1IDUuNiwwIDkuNjI1LDMuNjc1IDQuMDI1LDMuNjc1IDQuMDI1LDEwLjE1IHogbSAzMi4wMjUsMTAyLjM3NSBxIC02LjY1LDMuMTUgLTEyLjYsNC4yIC01Ljc3NSwxLjIyNSAtMTAuNjc1LDEuMjI1IC04LjQsMCAtMTQuMTc1LC0yLjQ1IC01LjYsLTIuNDUgLTkuMSwtNyAtMy4zMjUsLTQuNzI1IC00LjcyNSwtMTEuMzc1IC0xLjQsLTYuNjUgLTEuNCwtMTUuMjI1IGwgMCwtMzAuMjc1IC0yMi43NSwwIDAsLTE3Ljg1IDQ0LjI3NSwwIDAsNTAuOTI1IHEgMCw3LjM1IDIuNjI1LDExLjAyNSAyLjgsMy41IDkuMSwzLjUgMi45NzUsMCA3LjE3NSwtMC43IDQuMiwtMC44NzUgOS40NSwtMy4zMjUgbCAyLjgsMTcuMzI1IHoiLz4mI3hhOyAgICAgIDxwYXRoIGlkPSJwYXRoMzQxOSIgc3R5bGU9ImZvbnQtc3R5bGU6bm9ybWFsO2ZvbnQtdmFyaWFudDpub3JtYWw7Zm9udC13ZWlnaHQ6Ym9sZDtmb250LXN0cmV0Y2g6bm9ybWFsO2ZvbnQtc2l6ZToxNzVweDt0ZXh0LWFsaWduOnN0YXJ0O3dyaXRpbmctbW9kZTpsci10Yjt0ZXh0LWFuY2hvcjpzdGFydDtmaWxsOiNlMTU2MTc7ZmlsbC1vcGFjaXR5OjEiIGQ9Im0gODQwLjYwNDEzLDc0MC41OTE0NiBxIDAsLTExLjU1IC0zLjg1LC0xNy42NzUgLTMuNjc1LC02LjEyNSAtMTEuMzc1LC02LjEyNSAtMy41LDAgLTcsMS4wNSAtMy4zMjUsMC44NzUgLTUuNzc1LDIuMjc1IGwgMCw0NC42MjUgcSAyLjQ1LDAuNTI1IDUuMDc1LDAuNyAyLjgsMC4xNzUgNC43MjUsMC4xNzUgOC40LDAgMTMuMywtNS42IDQuOSwtNS43NzUgNC45LC0xOS40MjUgeiBtIDIxLjg3NSwwLjUyNSBxIDAsOS44IC0yLjYyNSwxNy44NSAtMi42MjUsNy44NzUgLTcuNywxMy40NzUgLTUuMDc1LDUuNiAtMTIuNDI1LDguNzUgLTcuMzUsMi45NzUgLTE2LjgsMi45NzUgLTguNCwwIC0xNy4xNSwtMS4yMjUgLTguNzUsLTEuMjI1IC0xNC43LC0zLjE1IGwgMCwtMTE1LjMyNSAyMS41MjUsLTMuNjc1IDAsNDEuMTI1IHEgNC41NSwtMi4xIDguNzUsLTIuOCA0LjIsLTAuODc1IDguNCwtMC44NzUgOC4wNSwwIDE0LjE3NSwzLjE1IDYuMTI1LDIuOTc1IDEwLjE1LDguNzUgNC4yLDUuNiA2LjMsMTMuNDc1IDIuMSw3Ljg3NSAyLjEsMTcuNSB6Ii8+JiN4YTsgICAgPC9nPiYjeGE7ICA8L2c+JiN4YTs8L3N2Zz4=;" vertex="1" parent="1">
          <mxGeometry x="486.53" y="539.13" width="66.94" height="61.74" as="geometry" />
        </mxCell>
        <mxCell id="bnvGCbkC4F3y_n1LF4dj-23" value="" style="endArrow=none;endFill=0;strokeColor=#000000;edgeStyle=orthogonalEdgeStyle;rounded=0;" edge="1" parent="1" source="3" target="bnvGCbkC4F3y_n1LF4dj-22">
          <mxGeometry relative="1" as="geometry">
            <mxPoint x="520" y="290" as="sourcePoint" />
            <mxPoint x="520" y="170" as="targetPoint" />
          </mxGeometry>
        </mxCell>
        <mxCell id="bnvGCbkC4F3y_n1LF4dj-22" value="" style="dashed=0;outlineConnect=0;html=1;align=center;labelPosition=center;verticalLabelPosition=bottom;verticalAlign=top;shape=mxgraph.weblogos.json" vertex="1" parent="1">
          <mxGeometry x="500" y="210" width="40" height="43.31" as="geometry" />
        </mxCell>
        <mxCell id="bnvGCbkC4F3y_n1LF4dj-25" value="" style="endArrow=none;endFill=0;strokeColor=#000000;edgeStyle=orthogonalEdgeStyle;rounded=0;" edge="1" parent="1" source="2" target="bnvGCbkC4F3y_n1LF4dj-24">
          <mxGeometry relative="1" as="geometry">
            <mxPoint x="230" y="340" as="sourcePoint" />
            <mxPoint x="410" y="340" as="targetPoint" />
          </mxGeometry>
        </mxCell>
        <mxCell id="bnvGCbkC4F3y_n1LF4dj-24" value="" style="html=1;strokeWidth=1;shadow=0;dashed=0;shape=mxgraph.ios7.misc.wifi;fillColor=#007AFF;strokeColor=none;buttonText=;strokeColor2=#222222;fontColor=#222222;fontSize=8;verticalLabelPosition=bottom;verticalAlign=top;align=center;sketch=0;" vertex="1" parent="1">
          <mxGeometry x="300" y="320" width="40" height="40" as="geometry" />
        </mxCell>
      </root>
    </mxGraphModel>
  </diagram>
</mxfile>
